<svg width="100" height="29" viewBox="0 0 100 29" fill="none" xmlns="http://www.w3.org/2000/svg">
<path d="M9.86284 1.29396L7.38221 8.24577V10.2848H6.56873V8.24577L4.0881 1.29396H0.0891113V13.4386H2.77393V7.38701L1.70413 3.93563L2.46765 3.66536L5.95617 13.4419H7.99802L11.4865 3.66536L12.2501 3.93563L11.177 7.38701V13.4386H13.8618V1.29396H9.86284ZM39.3676 2.67473C38.7116 2.18759 37.9481 1.83668 37.0694 1.61981C36.1908 1.40294 35.2665 1.29396 34.289 1.29396H30.2618V13.4386H34.6507C35.5565 13.4386 36.4232 13.3079 37.2486 13.0441C38.074 12.7804 38.8039 12.3957 39.4349 11.8868C40.0659 11.3778 40.5666 10.7479 40.9413 9.99925C41.316 9.25165 41.5007 8.38526 41.5007 7.40118C41.5007 6.29285 41.3084 5.35018 40.925 4.57098C40.5416 3.79177 40.0214 3.16187 39.3665 2.67473H39.3676ZM38.3781 9.00645C38.1555 9.4816 37.846 9.86303 37.4561 10.1551C37.0661 10.4472 36.6056 10.6553 36.0702 10.7817C35.5348 10.9081 34.9602 10.9713 34.3411 10.9713H32.9466V3.76453H34.5301C35.0927 3.76453 35.6282 3.83645 36.1386 3.97922C36.6491 4.12198 37.0944 4.33667 37.4713 4.6222C37.8481 4.90772 38.1522 5.27063 38.3749 5.71199C38.5975 6.15227 38.7116 6.67101 38.7116 7.26386C38.7148 7.95261 38.603 8.53347 38.3771 9.00863L38.3781 9.00645ZM46.1165 10.9703V8.49969H51.4025V6.02912H46.1165V3.76344H52.0216V1.29396H43.4317V13.4386H52.0216V10.9681H46.1165V10.9713V10.9703Z" fill="#DFFE00"/>
<path d="M21.9047 14.0493C25.6227 14.0493 28.6367 11.058 28.6367 7.36796C28.6367 3.67794 25.6227 0.686584 21.9047 0.686584C18.1867 0.686584 15.1727 3.67794 15.1727 7.36796C15.1727 11.058 18.1867 14.0493 21.9047 14.0493Z" fill="#DFFE00"/>
<path d="M90.6403 1.19702H97.8039L99.7544 3.14751V11.6587L97.8039 13.6092H90.6403V1.19702ZM97.201 12.4035L98.4068 11.2155V3.59081L97.201 2.40278H91.9879V12.4035H97.201Z" fill="#DFFE00"/>
<path d="M81.1165 1.19702H82.4641V12.4212H88.7766V13.6092H81.1165V1.19702Z" fill="#DFFE00"/>
<path d="M70.7957 1.19702H78.8104V2.40278H72.1433V6.76479H78.2962V7.97055H72.1433V12.4035H78.8104V13.6092H70.7957V1.19702Z" fill="#DFFE00"/>
<path d="M66.5209 1.19702H67.8685V13.6092H66.5209V1.19702Z" fill="#DFFE00"/>
<path d="M59.0948 8.43157L54.786 1.19702H56.24L59.7509 7.20808H59.7864L63.2972 1.19702H64.7512L60.4424 8.43157V13.6092H59.0948V8.43157Z" fill="#DFFE00"/>
<path d="M99.9999 24.8071V28.1171H98.5556V25.1682L97.3068 23.8292H93.7111V28.1171H92.2667V17.5855H98.4804L99.9397 19.0449V22.3247L98.7813 23.4832L99.9999 24.8071ZM93.7111 22.5955H97.8334L98.5104 21.9335V19.4812L97.8334 18.8192H93.7111V22.5955Z" fill="#DFFE00"/>
<path d="M81.8315 26.432V19.2705L83.5166 17.5855H88.4815L90.1665 19.2705V26.432L88.4815 28.1171H83.5166L81.8315 26.432ZM87.7894 26.8533L88.7222 25.9205V19.7821L87.7894 18.8493H84.2087L83.2759 19.7821V25.9205L84.2087 26.8533H87.7894Z" fill="#DFFE00"/>
<path d="M76.0737 18.8342H72.8992V17.5855H80.6925V18.8342H77.518V28.1171H76.0737V18.8342Z" fill="#DFFE00"/>
<path d="M68.4149 17.5855H69.8592L73.6506 28.1171H72.1611L71.2283 25.439H67.0608L66.128 28.1171H64.6385L68.4149 17.5855ZM70.8522 24.2204L69.1521 19.3006H69.122L67.452 24.2204H70.8522Z" fill="#DFFE00"/>
<path d="M63.3571 24.8071V28.1171H61.9128V25.1682L60.664 23.8292H57.0682V28.1171H55.6239V17.5855H61.8375L63.2969 19.0449V22.3247L62.1384 23.4832L63.3571 24.8071ZM57.0682 22.5955H61.1906L61.8676 21.9335V19.4812L61.1906 18.8192H57.0682V22.5955Z" fill="#DFFE00"/>
<path d="M46.7495 17.5855H53.8207V18.8493H48.1938V22.2043H53.3844V23.4531H48.1938V26.8533H53.8207V28.1171H46.7495V17.5855Z" fill="#DFFE00"/>
<path d="M38.5511 17.5855H39.9955V26.8683H45.3214V28.1171H38.5511V17.5855Z" fill="#DFFE00"/>
<path d="M29.6768 17.5855H36.748V18.8493H31.1211V22.2043H36.3117V23.4531H31.1211V26.8533H36.748V28.1171H29.6768V17.5855Z" fill="#DFFE00"/>
<path d="M19.9175 26.432V19.2705L21.6025 17.5855H26.3267L27.9516 19.2104V20.3989H26.5072V19.7219L25.6346 18.8493H22.2946L21.3618 19.7821V25.9205L22.2946 26.8533H25.6346L26.5072 25.9807V25.3036H27.9516V26.4922L26.3267 28.1171H21.6025L19.9175 26.432Z" fill="#DFFE00"/>
<path d="M10.3087 26.432V19.2705L11.9938 17.5855H16.7179L18.3428 19.2104V20.3989H16.8985V19.7219L16.0259 18.8493H12.6858L11.753 19.7821V25.9205L12.6858 26.8533H16.0259L16.8985 25.9807V25.3036H18.3428V26.4922L16.7179 28.1171H11.9938L10.3087 26.432Z" fill="#DFFE00"/>
<path d="M4.09126 17.5855H5.5356L9.32696 28.117H7.8375L6.9047 25.439H2.7372L1.80441 28.117H0.314941L4.09126 17.5855ZM6.52857 24.2204L4.82848 19.3006H4.79839L3.12838 24.2204H6.52857Z" fill="#DFFE00"/>
</svg>
