<svg width="190" height="23" viewBox="0 0 190 23" fill="none" xmlns="http://www.w3.org/2000/svg">
<g clip-path="url(#clip0_60_52)">
<path d="M20.8115 15.1176V0.340149H24.0612V15.1176C24.0612 18.7289 25.2305 20.0435 29.7152 20.0435C34.2 20.0435 35.3693 18.7289 35.3693 15.1176V0.340149H38.619V15.1176C38.619 20.9309 35.4655 23 29.7152 23C23.965 23 20.8115 20.9309 20.8115 15.1176Z" fill="black"/>
<path d="M50.2892 3.29667V22.6726H47.0395V3.29667H40.2466V0.340149H57.0796V3.29667H50.2867H50.2892Z" fill="black"/>
<path d="M56.105 11.5064C56.105 4.93862 60.1367 0.0127869 66.8942 0.0127869C73.6517 0.0127869 77.6835 4.93862 77.6835 11.5064C77.6835 18.0742 73.6543 23 66.8942 23C60.1342 23 56.105 18.0742 56.105 11.5064ZM74.4338 11.5064C74.4338 5.23274 71.217 2.96931 66.8942 2.96931C62.5714 2.96931 59.3547 5.23529 59.3547 11.5064C59.3547 17.7775 62.5385 20.0435 66.8942 20.0435C71.2499 20.0435 74.4338 17.7775 74.4338 11.5064Z" fill="black"/>
<path d="M82.5607 6.71099V22.6701H79.311V0.340149H82.5607L93.0893 16.2992H93.6081V0.340149H96.8578V22.6701H93.6081L83.0796 6.71099H82.5607Z" fill="black"/>
<path d="M98.4849 11.5064C98.4849 4.93862 102.514 0.0127869 109.274 0.0127869C116.034 0.0127869 120.063 4.93862 120.063 11.5064C120.063 18.0742 116.034 23 109.274 23C102.514 23 98.4849 18.0742 98.4849 11.5064ZM116.814 11.5064C116.814 5.23274 113.597 2.96931 109.274 2.96931C104.951 2.96931 101.735 5.23529 101.735 11.5064C101.735 17.7775 104.918 20.0435 109.274 20.0435C113.63 20.0435 116.814 17.7775 116.814 11.5064Z" fill="black"/>
<path d="M124.938 8.48337V22.6701H121.688V0.340149H124.938L133.356 17.9412H133.875L142.293 0.340149H145.542V22.6701H142.293V8.48337H141.774L135.958 20.8312H131.278L125.462 8.48337H124.943H124.938Z" fill="black"/>
<path d="M151.394 0.340149V22.6701H148.144V0.340149H151.394Z" fill="black"/>
<path d="M157.242 6.71099V22.6701H153.993V0.340149H157.242L167.771 16.2992H168.29V0.340149H171.539V22.6701H168.29L157.761 6.71099H157.242Z" fill="black"/>
<path d="M183.207 3.29667V22.6726H179.957V3.29667H173.165V0.340149H189.998V3.29667H183.205H183.207Z" fill="black"/>
<path d="M0 22.3171L6.94986 0H12.08L19.0299 22.3171H15.6207L9.77688 3.05115H9.25805L3.40913 22.3171H0Z" fill="black"/>
<path d="M19.0145 7.49361H0.0175781V9.93606H19.0145V7.49361Z" fill="black"/>
<path d="M19.0145 11.4501H0.0175781V13.8926H9.51606H19.0145V11.4501Z" fill="black"/>
</g>
<defs>
<clipPath id="clip0_60_52">
<rect width="190" height="23" fill="white"/>
</clipPath>
</defs>
</svg>
