<svg width="27" height="21" viewBox="0 0 27 21" fill="none" xmlns="http://www.w3.org/2000/svg">
<g clip-path="url(#clip0_23_323)">
<mask id="mask0_23_323" style="mask-type:luminance" maskUnits="userSpaceOnUse" x="0" y="0" width="27" height="21">
<path d="M27 0H0V20.9155H27V0Z" fill="white"/>
</mask>
<g mask="url(#mask0_23_323)">
<path d="M22.8566 1.86255C21.1358 1.07293 19.2904 0.491178 17.3609 0.157983C17.3257 0.151553 17.2906 0.167623 17.2725 0.199765C17.0352 0.621881 16.7723 1.17257 16.5882 1.6054C14.513 1.29471 12.4483 1.29471 10.4156 1.6054C10.2315 1.16295 9.95905 0.621881 9.72065 0.199765C9.70255 0.168696 9.66744 0.152625 9.63231 0.157983C7.7039 0.490114 5.85851 1.07187 4.13655 1.86255C4.12164 1.86898 4.10887 1.8797 4.10039 1.89362C0.600066 7.12302 -0.358819 12.2239 0.111578 17.2615C0.113706 17.2862 0.127541 17.3097 0.146698 17.3247C2.45611 19.0207 4.69317 20.0503 6.88869 20.7328C6.92383 20.7435 6.96106 20.7306 6.98342 20.7017C7.50277 19.9925 7.96572 19.2446 8.36266 18.4582C8.38609 18.4122 8.36372 18.3575 8.31585 18.3393C7.58152 18.0608 6.8823 17.7211 6.2097 17.3354C6.15649 17.3044 6.15224 17.2283 6.20118 17.1918C6.34272 17.0858 6.4843 16.9754 6.61945 16.864C6.6439 16.8437 6.67797 16.8394 6.70672 16.8522C11.1254 18.8697 15.9092 18.8697 20.2758 16.8522C20.3046 16.8383 20.3386 16.8426 20.3642 16.8629C20.4994 16.9744 20.6409 17.0858 20.7835 17.1918C20.8324 17.2283 20.8292 17.3044 20.776 17.3354C20.1034 17.7286 19.4042 18.0608 18.6688 18.3382C18.6209 18.3565 18.5997 18.4122 18.6231 18.4582C19.0285 19.2435 19.4915 19.9914 20.0013 20.7006C20.0226 20.7306 20.0608 20.7435 20.096 20.7328C22.3022 20.0503 24.5392 19.0207 26.8486 17.3247C26.8688 17.3097 26.8816 17.2872 26.8837 17.2626C27.4467 11.4385 25.9408 6.3795 22.8917 1.89468C22.8843 1.8797 22.8715 1.86898 22.8566 1.86255ZM9.02253 14.1941C7.69219 14.1941 6.59602 12.9728 6.59602 11.4728C6.59602 9.97289 7.67093 8.75154 9.02253 8.75154C10.3847 8.75154 11.4703 9.98361 11.449 11.4728C11.449 12.9728 10.3741 14.1941 9.02253 14.1941ZM17.9941 14.1941C16.6638 14.1941 15.5676 12.9728 15.5676 11.4728C15.5676 9.97289 16.6425 8.75154 17.9941 8.75154C19.3563 8.75154 20.4419 9.98361 20.4206 11.4728C20.4206 12.9728 19.3563 14.1941 17.9941 14.1941Z" fill="#242424"/>
</g>
</g>
<defs>
<clipPath id="clip0_23_323">
<rect width="27" height="20.9155" fill="white"/>
</clipPath>
</defs>
</svg>
