<svg width="21" height="21" viewBox="0 0 21 21" fill="none" xmlns="http://www.w3.org/2000/svg">
<g clip-path="url(#clip0_23_320)">
<path d="M10.5001 0.203827C4.70181 0.203827 0 4.90477 0 10.7039C0 15.3431 3.00859 19.279 7.1806 20.6674C7.70536 20.7646 7.89802 20.4396 7.89802 20.1623C7.89802 19.9119 7.88828 19.0848 7.88376 18.2074C4.96262 18.8426 4.34623 16.9685 4.34623 16.9685C3.86859 15.7549 3.18039 15.4322 3.18039 15.4322C2.22771 14.7805 3.2522 14.7939 3.2522 14.7939C4.30659 14.8679 4.86178 15.8759 4.86178 15.8759C5.79828 17.4811 7.31814 17.017 7.91732 16.7488C8.01156 16.0701 8.28368 15.6069 8.58396 15.3447C6.25175 15.0792 3.80008 14.1788 3.80008 10.1555C3.80008 9.00914 4.21026 8.07246 4.88195 7.33713C4.77292 7.07267 4.41352 6.00471 4.98366 4.5584C4.98366 4.5584 5.86539 4.2762 7.87194 5.6347C8.7095 5.40206 9.60775 5.28538 10.5001 5.28139C11.3924 5.28538 12.2914 5.40206 13.1305 5.6347C15.1346 4.2762 16.0151 4.5584 16.0151 4.5584C16.5867 6.00471 16.2271 7.07267 16.1181 7.33713C16.7913 8.07246 17.1987 9.00914 17.1987 10.1555C17.1987 14.1884 14.7423 15.0764 12.4042 15.3363C12.7808 15.6622 13.1164 16.3012 13.1164 17.2808C13.1164 18.6857 13.1042 19.8165 13.1042 20.1623C13.1042 20.4417 13.2932 20.7691 13.8255 20.666C17.9952 19.2761 21 15.3416 21 10.7039C21 4.90477 16.2989 0.203827 10.5001 0.203827ZM3.93262 15.1614C3.9095 15.2136 3.82743 15.2292 3.75266 15.1934C3.6765 15.1592 3.63373 15.088 3.65842 15.0357C3.68102 14.982 3.76327 14.967 3.83925 15.003C3.91558 15.0373 3.95905 15.1091 3.93262 15.1614ZM4.44911 15.6223C4.39903 15.6687 4.30114 15.6471 4.23472 15.5738C4.16604 15.5006 4.15317 15.4027 4.20395 15.3556C4.25559 15.3091 4.35052 15.3309 4.41938 15.4041C4.48806 15.4781 4.50145 15.5753 4.44911 15.6223ZM4.80344 16.2119C4.73911 16.2566 4.63391 16.2147 4.56888 16.1213C4.50455 16.028 4.50455 15.916 4.57027 15.8711C4.63548 15.8263 4.73911 15.8666 4.80501 15.9593C4.86917 16.0542 4.86917 16.1662 4.80344 16.2119ZM5.40269 16.8948C5.34514 16.9583 5.22255 16.9412 5.13283 16.8547C5.04103 16.77 5.01547 16.6498 5.07319 16.5864C5.13144 16.5227 5.25472 16.5406 5.34514 16.6265C5.43625 16.711 5.46407 16.8321 5.40269 16.8948ZM6.17716 17.1254C6.15177 17.2076 6.03371 17.245 5.91478 17.21C5.79602 17.174 5.7183 17.0777 5.74229 16.9946C5.76698 16.9118 5.88557 16.8729 6.00537 16.9103C6.12395 16.9461 6.20185 17.0417 6.17716 17.1254ZM7.05854 17.2232C7.06149 17.3097 6.96065 17.3816 6.8358 17.3831C6.71026 17.3859 6.60872 17.3158 6.60733 17.2306C6.60733 17.1432 6.70592 17.0721 6.83146 17.07C6.9563 17.0675 7.05854 17.1371 7.05854 17.2232ZM7.9244 17.19C7.93935 17.2745 7.85258 17.3612 7.72861 17.3844C7.60672 17.4066 7.49388 17.3544 7.4784 17.2706C7.46327 17.184 7.5516 17.0973 7.67332 17.0749C7.79746 17.0533 7.90857 17.1041 7.9244 17.19Z" fill="#242424"/>
</g>
<defs>
<clipPath id="clip0_23_320">
<rect width="21" height="20.5078" fill="white" transform="translate(0 0.203827)"/>
</clipPath>
</defs>
</svg>
